# AST/ASF file generated using VICON BodyLanguage
# -----------------------------------------------
:version 1.10
:name VICON
:units
  mass 1.0
  length 0.45
  angle deg
:documentation
   .ast/.asf automatically generated from VICON data using
   VICON BodyBuilder and BodyLanguage model FoxedUp or BRILLIANT.MOD
:root
   order TX TY TZ RX RY RZ
   axis XYZ
   position 0 0 0  
   orientation 0 0 0 
:bonedata
  begin
     id 1 
     name lhipjoint
     direction 0.734343 -0.627749 0.258209 
     length 2.5437 
     axis 0 0 0  XYZ
  end
  begin
     id 2 
     name lfemur
     direction 0.34202 -0.939693 0  
     length 6.7391  
     axis 0 0 20  XYZ
    dof rx ry rz
    limits (-160.0 20.0)
           (-70.0 70.0)
           (-60.0 70.0)
  end
  begin
     id 3 
     name ltibia
     direction 0.34202 -0.939693 0   
     length 7.21536   
     axis 0 0 20   XYZ
    dof rx
    limits (-10.0 170.0)
  end
  begin
     id 4 
     name lfoot
     direction 0.0489572 -0.134509 0.989702   
     length 1.61313   
     axis -90 7.62852e-016 20   XYZ
    dof rx rz
    limits (-45.0 90.0)
           (-70.0 20.0)
  end
  begin
     id 5 
     name ltoes
     direction 1.53451e-011 -4.21692e-011 1   
     length 0.823104   
     axis -90 7.62852e-016 20   XYZ
    dof rx
    limits (-90.0 20.0)
  end
  begin
     id 6 
     name rhipjoint
     direction -0.746398 -0.615468 0.253157   
     length 2.59446  
     axis 0 0 0  XYZ 
  end
  begin
     id 7 
     name rfemur
     direction -0.34202 -0.939693 0   
     length 6.7075   
     axis 0 0 -20   XYZ
    dof rx ry rz
    limits (-160.0 20.0)
           (-70.0 70.0)
           (-70.0 60.0)
  end
  begin
     id 8 
     name rtibia
     direction -0.34202 -0.939693 0   
     length 7.27262   
     axis 0 0 -20   XYZ
    dof rx
    limits (-10.0 170.0)
 end
 begin
     id 9 
     name rfoot
     direction -0.0455203 -0.125066 0.991104   
     length 1.91095  
     axis -90 -7.62852e-016 -20   XYZ
    dof rx rz
    limits (-45.0 90.0)
           (-20.0 70.0)
  end
  begin
     id 10 
     name rtoes
     direction -1.53601e-011 -4.21913e-011 1   
     length 0.969037   
     axis -90 -7.62852e-016 -20   XYZ
    dof rx
    limits (-90.0 20.0)
  end
  begin
     id 11 
     name lowerback
     direction 0.0181546 0.999122 -0.0377542   
     length 1.99916   
     axis 0 0 0   XYZ
    dof rx ry rz
    limits (-20.0 45.0)
           (-30.0 30.0)
           (-30.0 30.0)
  end
  begin
     id 12 
     name upperback
     direction 0.0203486 0.99589 0.0882534   
     length 1.951   
     axis 0 0 0   XYZ
    dof rx ry rz
    limits (-20.0 45.0)
           (-30.0 30.0)
           (-30.0 30.0)
  end
  begin
     id 13 
     name thorax
     direction 0.0131685 0.994241 0.106355   
     length 1.97461   
     axis 0 0 0   XYZ
    dof rx ry rz
    limits (-20.0 45.0)
           (-30.0 30.0)
           (-30.0 30.0)
  end
  begin
     id 14 
     name lowerneck
     direction -0.0281395 0.999325 0.023617   
     length 1.7959   
     axis 0 0 0   XYZ
    dof rx ry rz
    limits (-20.0 45.0)
           (-30.0 30.0)
           (-30.0 30.0)
  end
  begin
     id 15 
     name upperneck
     direction 0.0288721 0.991984 -0.123019   
     length 1.79917   
     axis 0 0 0   XYZ
    dof rx ry rz
    limits (-20.0 45.0)
           (-30.0 30.0)
           (-30.0 30.0)
  end
  begin
     id 16
     name head
     direction 0.0133797 0.998944 -0.0439492  
     length 1.80902  
     axis 0 0 0   XYZ
    dof rx ry rz
    limits (-20.0 45.0)
           (-30.0 30.0)
           (-30.0 30.0)
  end
  begin
     id 17 
     name lclavicle
     direction 0.919195 0.377107 0.113449  
     length 3.17815  
     axis 0 0 0   XYZ
    dof ry rz
    limits (-20.0 10.0)
           (0.0 20.0)
  end
  begin
     id 18 
     name lhumerus
     direction 1 -4.48959e-011 2.13129e-027   
     length 4.84137   
     axis 180 -30 -90   XYZ
    dof rx ry rz
    limits (-60.0 90.0)
           (-90.0 90.0)
           (-90.0 90.0)
  end
  begin
     id 19
     name lradius
     direction 1 -4.48957e-011 -6.30627e-028   
     length 3.2452   
     axis 180 -30 -90   XYZ
    dof rx
    limits (-10.0 170.0)
  end
  begin
     id 20
     name lwrist
     direction 1 -4.4901e-011 9.13299e-027   
     length 1.6226   
     axis -6.84618e-015 90 90   XYZ
    dof ry
    limits (-180.0 0.0)
 end
  begin
     id 21 
     name lhand
     direction 1 -4.48816e-011 1.82293e-026   
     length 0.521221   
     axis -1.16502e-014 90 90   XYZ
    dof rx rz
    limits (-90.0 90.0)
           (-45.0 45.0)
  end
  begin
     id 22 
     name lfingers
     direction 1 -4.49108e-011 3.65687e-026   
     length 0.420221   
     axis -2.33008e-014 90 90   XYZ
    dof rx
    limits (0.0 90.0)
  end
  begin
     id 23
     name lthumb
     direction 0.707107 -6.34943e-011 0.707107   
     length 0.603356   
     axis -90 45 5.69224e-014   XYZ
    dof rx rz
    limits (-45.0 45.0)
           (-45.0 45.0)
  end
  begin
     id 24 
     name rclavicle
     direction -0.90847 0.38596 0.160368   
     length 3.12973  
     axis 0 0 0   XYZ 
    dof ry rz
    limits (-10.0 20.0)
           (-20.0 0.0)
  end
  begin
     id 25 
     name rhumerus
     direction -1 -4.48974e-011 4.47268e-028  
     length 4.72284   
     axis 180 30 90   XYZ
    dof rx ry rz
    limits (-90.0 60.0)
           (-90.0 90.0)
           (-90.0 90.0)
  end
  begin
     id 26 
     name rradius
     direction -1 -4.48969e-011 3.43203e-027   
     length 3.23459   
     axis 180 30 90   XYZ
    dof rx
    limits (-10.0 170.0)
  end
  begin
     id 27 
     name rwrist
     direction -1 -4.48969e-011 9.12911e-027   
     length 1.6173   
     axis -6.84618e-015 -90 -90   XYZ
    dof ry
    limits (-180.0 0.0)
  end
  begin
     id 28
     name rhand
     direction -1 -4.49194e-011 1.83006e-026   
     length 0.307416   
     axis -1.16502e-014 -90 -90   XYZ
    dof rx rz
    limits (-90.0 90.0)
           (-45.0 45.0)
  end
  begin
     id 29
     name rfingers
     direction -1 -4.48423e-011 3.63103e-026   
     length 0.247847   
     axis -2.33008e-014 -90 -90   XYZ
    dof rx
    limits (0.0 90.0)
  end
  begin
     id 30
     name rthumb
     direction -0.707107 -6.34802e-011 0.707107   
     length 0.35586   
     axis -90 -45 -5.69224e-014   XYZ
    dof rx rz
    limits (-45.0 45.0)
           (-45.0 45.0)
  end
:hierarchy
  begin
    root lhipjoint rhipjoint lowerback
    lhipjoint lfemur
    lfemur ltibia
    ltibia lfoot
    lfoot ltoes
    rhipjoint rfemur
    rfemur rtibia
    rtibia rfoot
    rfoot rtoes
    lowerback upperback
    upperback thorax
    thorax lowerneck lclavicle rclavicle
    lowerneck upperneck
    upperneck head
    lclavicle lhumerus
    lhumerus lradius
    lradius lwrist
    lwrist lhand lthumb
    lhand lfingers
    rclavicle rhumerus
    rhumerus rradius
    rradius rwrist
    rwrist rhand rthumb
    rhand rfingers
  end

#!OML:ASF H:\Terrain\Patient Classification 1\Animal1\Tuesday\Animal1.ASF
:FULLY-SPECIFIED
:DEGREES
1
root 11.5 16.076 -10.2171 8.32279 -13.391 0.5388
lowerback 12.6912 0.520147 1.11477
upperback 7.17326 0.758164 0.542716
thorax 0.406733 0.37987 -0.15488
lowerneck -5.45456 -2.15013 -7.2356
upperneck -9.30639 -1.73313 15.3713
head -1.5608 -0.945405 5.88046
rclavicle -5.36719e-015 -1.03368e-014
rhumerus 12.7218 17.9256 -80.8795
rradius 90.574
rwrist 19.1579
rhand 38.6763 -7.32671
rfingers 7.12502
rthumb 61.2891 -19.6785
lclavicle -5.36719e-015 -1.03368e-014
lhumerus -0.933536 -30.4193 85.0934
lradius 120.234
lwrist -38.52
lhand 54.6735 66.594
lfingers 7.12502
lthumb 72.6621 51.1761
rfemur -35.273 12.0327 14.0666
rtibia 36.6039
rfoot -1.36859 -19.0845
rtoes -14.3636
lfemur -20.6668 -2.74114 -15.6604
ltibia 36.3813
lfoot -20.6289 17.8809
ltoes -11.5855
2
root 11.4835 16.0812 -10.2155 8.5083 -13.1977 0.956995
lowerback 12.6426 0.526555 0.733934
upperback 7.09937 0.727285 0.406015
thorax 0.351001 0.356775 -0.0789572
lowerneck -5.62093 -2.24886 -7.28589
upperneck -8.96675 -1.8827 15.6087
head -1.41095 -1.00602 5.95492
rclavicle 9.34288e-015 -7.55382e-015
rhumerus 11.2565 18.4536 -80.6882
rradius 88.9697
rwrist 17.828
rhand 43.5504 -8.9492
rfingers 7.12502
rthumb 65.2647 -15.6791
lclavicle 9.34288e-015 -7.55382e-015
lhumerus 1.11699 -29.1566 84.4442
lradius 121.157
lwrist -40.7251
lhand 55.4905 64.7166
lfingers 7.12502
lthumb 73.051 46.969
rfemur -35.6561 11.7537 13.6617
rtibia 36.9166
rfoot -1.41305 -19.1785
rtoes -13.7294
lfemur -20.7522 -2.94369 -16.0051
ltibia 35.924
lfoot -20.1517 18.0675
ltoes -13.2667
3
root 11.4682 16.0816 -10.2138 8.64035 -12.8187 1.33391
lowerback 12.588 0.476734 0.354076
upperback 7.1562 0.622447 0.38946
thorax 0.4349 0.294805 0.130835
lowerneck -5.96323 -2.36039 -7.51061
upperneck -8.83578 -2.01146 15.9017
head -1.29064 -1.05093 6.07939
rclavicle 3.49861e-014 1.03368e-014
rhumerus 9.51292 19.1484 -80.4975
rradius 88.1407
rwrist 16.8743
rhand 47.7969 -11.7585
rfingers 7.12502
rthumb 68.4477 -11.8895
lclavicle 3.49861e-014 1.03368e-014
lhumerus 3.22437 -27.1023 84.02
lradius 121.774
lwrist -42.5722
lhand 57.7154 63.3169
lfingers 7.12502
lthumb 73.9511 38.6923
rfemur -35.8628 11.3151 13.3274
rtibia 37.0404
rfoot -1.37452 -19.2443
rtoes -14.2322
lfemur -20.9168 -3.21997 -16.289
ltibia 35.6875
lfoot -19.8942 18.1524
ltoes -14.7605
4
root 11.4414 16.0881 -10.2113 8.83832 -12.2649 1.12773
lowerback 12.4657 0.402246 0.46853
upperback 7.35192 0.535908 0.57353
thorax 0.705574 0.251786 0.269578
lowerneck -6.10152 -2.44498 -7.7284
upperneck -9.23419 -2.05268 16.1982
head -1.36716 -1.0768 6.21621
rclavicle -3.18055e-014 -7.15625e-015
rhumerus 7.62853 19.6668 -80.5701
rradius 87.8966
rwrist 15.9753
rhand 48.7461 -9.22123
rfingers 7.12502
rthumb 69.1102 -7.60145
lclavicle -3.18055e-014 -7.15625e-015
lhumerus 5.22985 -25.2197 83.7037
lradius 122.054
lwrist -44.3131
lhand 57.4925 60.8112
lfingers 7.12502
lthumb 73.8722 36.9093
rfemur -35.9511 11.2772 13.5575
rtibia 37.2012
rfoot -1.69684 -19.6957
rtoes -13.9761
lfemur -21.0418 -3.48434 -15.8826
ltibia 35.4062
lfoot -19.8076 17.9542
ltoes -14.7955
5
root 11.4162 16.0959 -10.2128 8.96125 -11.5936 0.997352
lowerback 12.4608 0.293362 0.62803
upperback 7.5436 0.408598 0.717742
thorax 0.910462 0.190798 0.345083
lowerneck -6.0002 -2.516 -7.86797
upperneck -9.85257 -2.06776 16.4033
head -1.55345 -1.10715 6.3178
rclavicle 3.02153e-014 -7.15625e-015
rhumerus 5.53662 20.0016 -80.9129
rradius 88.9071
rwrist 16.2808
rhand 53.2142 -10.3744
rfingers 7.12502
rthumb 71.8986 1.14956
lclavicle 3.02153e-014 -7.15625e-015
lhumerus 7.02317 -23.6691 83.3594
lradius 121.931
lwrist -45.7227
lhand 55.2026 58.5584
lfingers 7.12502
lthumb 72.9173 41.6441
rfemur -35.9513 11.1938 13.6994
rtibia 37.3406
rfoot -2.1931 -20.0946
rtoes -12.2599
lfemur -21.1709 -3.87122 -15.5537
ltibia 35.1691
lfoot -19.5061 17.8835
ltoes -15.9987
6
root 11.3959 16.1032 -10.2169 8.86548 -11.0037 1.2487
lowerback 12.7943 0.18872 0.423037
upperback 7.65208 0.253817 0.792475
thorax 0.845115 0.105533 0.555049
lowerneck -5.87056 -2.56875 -7.94752
upperneck -10.3549 -2.08817 16.3726
head -1.71755 -1.1348 6.33267
rclavicle -1.76918e-014 1.51076e-014
rhumerus 3.40076 20.2569 -81.5249
rradius 90.2378
rwrist 16.0301
rhand 56.3267 -10.7208
rfingers 7.12502
rthumb 73.4177 9.5216
lclavicle -1.76918e-014 1.51076e-014
lhumerus 8.39495 -22.2692 83.066
lradius 121.386
lwrist -46.5131
lhand 52.5496 57.6969
lfingers 7.12502
lthumb 71.5239 47.8341
rfemur -35.8209 10.9099 13.495
rtibia 37.4285
rfoot -2.78969 -20.2201
rtoes -9.87134
lfemur -21.1759 -4.21589 -15.6883
ltibia 35.0112
lfoot -19.2374 17.7802
ltoes -16.994
7
root 11.3709 16.1121 -10.2172 8.78846 -10.3679 1.23784
lowerback 13.2163 -0.00505929 0.35983
upperback 7.72972 -0.00166963 0.993681
thorax 0.703774 -0.0282145 0.830504
lowerneck -5.96592 -2.54213 -7.76222
upperneck -10.6125 -2.05465 15.937
head -1.79533 -1.11953 6.16637
rclavicle -8.94531e-015 3.97569e-016
rhumerus 1.27029 20.5635 -82.3873
rradius 91.9309
rwrist 15.3597
rhand 58.0398 -10.8242
rfingers 7.12502
rthumb 74.0612 14.8649
lclavicle -8.94531e-015 3.97569e-016
lhumerus 9.28723 -20.988 82.8064
lradius 120.514
lwrist -47.1481
lhand 51.3309 58.251
lfingers 7.12502
lthumb 70.7975 51.2572
rfemur -35.5993 10.6895 13.5949
rtibia 37.4993
rfoot -3.50529 -20.4686
rtoes -7.66817
lfemur -21.1923 -4.42682 -15.5306
ltibia 34.9473
lfoot -19.3122 17.2532
ltoes -15.6351
8
root 11.3467 16.1152 -10.2195 8.84697 -9.5554 0.834555
lowerback 13.5811 -0.305824 0.686454
upperback 7.77849 -0.351601 1.36106
thorax 0.566837 -0.200064 1.07448
lowerneck -6.14253 -2.43833 -7.57408
upperneck -10.7278 -1.93422 15.4221
head -1.83067 -1.0517 5.97262
rclavicle 7.95139e-016 2.18663e-014
rhumerus -0.600403 20.9667 -83.2295
rradius 93.8291
rwrist 14.2633
rhand 59.5907 -12.2564
rfingers 7.12502
rthumb 74.5066 18.7149
lclavicle 7.95139e-016 2.18663e-014
lhumerus 9.80885 -20.1015 82.6038
lradius 119.169
lwrist -48.3738
lhand 50.8397 59.0265
lfingers 7.12502
lthumb 70.4914 53.1262
rfemur -35.3809 10.5079 14.0935
rtibia 37.5152
rfoot -4.2405 -20.8586
rtoes -5.2145
lfemur -21.3856 -4.71802 -14.9022
ltibia 34.92
lfoot -19.3691 16.6706
ltoes -14.271
9
root 11.3276 16.1114 -10.2263 8.98708 -8.72704 0.503739
lowerback 13.804 -0.619821 1.01608
upperback 7.83405 -0.717293 1.72992
thorax 0.514669 -0.379691 1.32254
lowerneck -6.47197 -2.27777 -7.47022
upperneck -10.5923 -1.74699 14.9848
head -1.77158 -0.936356 5.81369
rclavicle -1.31198e-014 -2.38542e-015
rhumerus -1.75769 21.4503 -83.8347
rradius 95.6877
rwrist 12.863
rhand 60.6162 -14.1142
rfingers 7.12502
rthumb 74.7235 20.5006
lclavicle -1.31198e-014 -2.38542e-015
lhumerus 10.0597 -19.7366 82.2845
lradius 117.308
lwrist -50.0829
lhand 50.2716 59.3227
lfingers 7.12502
lthumb 70.1284 54.6437
rfemur -35.2844 10.2213 14.5042
rtibia 37.4694
rfoot -4.57833 -21.2006
rtoes -2.9423
lfemur -21.7643 -5.11245 -14.345
ltibia 34.9544
lfoot -19.2237 16.4054
ltoes -14.5217
10
root 11.3101 16.1199 -10.2209 9.13494 -8.09116 0.477068
lowerback 13.7757 -0.926101 1.10608
upperback 7.90563 -1.10703 1.91461
thorax 0.614846 -0.574818 1.51405
lowerneck -6.67885 -2.02329 -7.05596
upperneck -10.4437 -1.46042 14.4293
head -1.74497 -0.785598 5.56703
rclavicle 1.39149e-014 3.49861e-014
rhumerus -2.42773 21.9878 -84.4552
rradius 97.813
rwrist 11.6415
rhand 59.9826 -14.7807
rfingers 7.12502
rthumb 74.597 17.5705
lclavicle 1.39149e-014 3.49861e-014
lhumerus 9.78495 -19.7032 81.8824
lradius 115.222
lwrist -52.0489
lhand 49.3812 59.5319
lfingers 7.12502
lthumb 69.5414 56.6764
rfemur -35.2112 9.92121 14.5729
rtibia 37.3807
rfoot -4.6053 -21.4818
rtoes -2.05277
lfemur -22.0923 -5.44121 -14.1768
ltibia 35.0549
lfoot -19.2006 16.2082
ltoes -14.641
11
root 11.2925 16.1253 -10.2135 9.27537 -7.6847 0.457886
lowerback 13.779 -1.18889 1.12992
upperback 7.90964 -1.44626 2.02239
thorax 0.626827 -0.745294 1.65685
lowerneck -6.42934 -1.77666 -6.51928
upperneck -10.5898 -1.17388 13.977
head -1.87474 -0.666403 5.33997
rclavicle 9.14409e-015 -1.23246e-014
rhumerus -2.74045 22.4325 -85.0658
rradius 100.247
rwrist 10.8937
rhand 60.0285 -15.0833
rfingers 7.12502
rthumb 74.607 17.4306
lclavicle 9.14409e-015 -1.23246e-014
lhumerus 8.88955 -19.8184 81.8389
lradius 113.005
lwrist -54.293
lhand 49.9162 59.3517
lfingers 7.12502
lthumb 69.8967 55.4137
rfemur -35.1538 9.69769 14.6417
rtibia 37.2644
rfoot -4.61074 -21.6165
rtoes -3.2921
lfemur -22.3841 -5.64444 -14.0464
ltibia 35.1998
lfoot -19.1663 16.1259
ltoes -14.9586
